<?xml version="1.0" encoding="UTF-8" standalone="no"?>
<!-- Created with Inkscape (http://www.inkscape.org/) -->

<svg
   version="1.1"
   id="svg1"
   width="512"
   height="512"
   viewBox="0 0 512 512"
   sodipodi:docname="apppod2.svg"
   inkscape:version="1.4 (86a8ad7, 2024-10-11)"
   xmlns:inkscape="http://www.inkscape.org/namespaces/inkscape"
   xmlns:sodipodi="http://sodipodi.sourceforge.net/DTD/sodipodi-0.dtd"
   xmlns="http://www.w3.org/2000/svg"
   xmlns:svg="http://www.w3.org/2000/svg">
  <defs
     id="defs1" />
  <sodipodi:namedview
     id="namedview1"
     pagecolor="#ffffff"
     bordercolor="#000000"
     borderopacity="0.25"
     inkscape:showpageshadow="2"
     inkscape:pageopacity="0.0"
     inkscape:pagecheckerboard="0"
     inkscape:deskcolor="#d1d1d1"
     inkscape:zoom="1.5761719"
     inkscape:cx="256"
     inkscape:cy="52.976456"
     inkscape:window-width="1920"
     inkscape:window-height="1009"
     inkscape:window-x="-8"
     inkscape:window-y="-8"
     inkscape:window-maximized="1"
     inkscape:current-layer="g1" />
  <g
     inkscape:groupmode="layer"
     inkscape:label="Image"
     id="g1">
    <path
       style="fill:#59668d;fill-opacity:1"
       d="m 239.86555,510.89922 c -10.38448,-1.08355 -23.03077,-5.05229 -28.32921,-8.89046 -11.44147,-8.28816 -24.95996,-35.66297 -35.14975,-71.17789 -7.60693,-26.51277 -11.70785,-52.51952 -12.6671,-80.33087 -0.54083,-15.68028 -0.42317,-17.42697 1.5156,-22.5 9.03397,-23.63841 47.18506,-40.98821 90.13046,-40.98821 42.9454,0 81.09649,17.3498 90.13046,40.98821 1.93877,5.07303 2.05643,6.81972 1.5156,22.5 -0.95925,27.81135 -5.06017,53.8181 -12.6671,80.33087 -10.18021,35.48155 -23.70919,62.89039 -35.1242,71.15938 -10.70527,7.75486 -35.1918,11.43021 -59.35476,8.90897 z M 132.17139,390.01547 c -3.99822,-1.20598 -13.98374,-9.17566 -25.66704,-20.48548 C 90.349628,353.89167 79.616869,340.20957 69.220018,322 30.968938,255.00513 30.866733,174.74754 68.947925,108.33452 85.591297,79.308728 114.70838,49.234092 142.8323,32.020354 193.45811,1.0339361 253.64033,-7.7454941 311.04758,7.4809706 c 18.2554,4.8419864 40.01428,14.2340364 56.85122,24.5393834 28.12392,17.213738 57.241,47.288374 73.88438,76.314166 44.53214,77.66338 36.19625,174.3635 -21.00482,243.66548 -12.20282,14.78432 -35.43138,35.71611 -42.28741,38.10613 -4.08116,1.4227 -9.49416,-0.98478 -11.66862,-5.18972 -2.9183,-5.64336 -0.88064,-9.63136 8.81316,-17.24859 C 414.35517,337.24251 440.84867,291.2321 447.99695,242 c 2.09111,-14.40205 2.0424,-40.56913 -0.10146,-54.5 C 438.92542,129.21204 406.12731,79.765326 355.86555,48.754865 312.66523,22.101169 258.04393,13.929092 207.86555,26.612086 173.03126,35.416738 142.0306,53.308982 116.79208,79.17577 87.184487,109.52039 69.315226,145.39512 62.835608,187.5 c -2.143854,13.93087 -2.192565,40.09795 -0.101453,54.5 7.148277,49.2321 33.641776,95.24251 72.361455,125.66782 6.44118,5.06138 8.47559,7.28654 9.35964,10.23725 1.48255,4.94829 -0.78308,9.65104 -5.624,11.67371 -1.8708,0.78167 -3.52842,1.38254 -3.68358,1.33527 -0.15517,-0.0473 -1.49449,-0.45164 -2.97628,-0.89858 z M 350.29809,297.609 c -4.11788,-1.33149 -7.57958,-6.9034 -6.62839,-10.66899 0.33899,-1.34201 3.19372,-6.49001 6.34384,-11.44001 25.71463,-40.4071 23.56312,-90.92836 -5.48977,-128.90924 -11.37523,-14.87086 -27.10184,-27.21249 -43.75564,-34.33774 -14.16303,-6.05958 -20.82671,-7.79124 -35.16119,-9.13719 C 210.30055,97.922803 159.6518,134.07084 145.97111,188.5 c -2.6352,10.48426 -3.73526,26.09587 -2.61055,37.04806 1.92722,18.76682 7.23838,34.05188 17.357,49.95194 6.641,10.43545 7.32532,12.45056 5.62345,16.55924 -1.7004,4.10514 -4.63634,5.94076 -9.5018,5.94076 -3.30379,0 -4.67026,-0.61916 -7.17265,-3.25 -6.98954,-7.34832 -15.84112,-24.03894 -20.83736,-39.29108 -19.79358,-60.42447 7.74179,-127.72561 64.57758,-157.838561 66.596,-35.284141 148.28662,-8.336836 181.52483,59.879641 20.29308,41.64853 17.24697,90.6433 -8.05129,129.5 -6.81857,10.47295 -10.23773,12.66046 -16.58223,10.609 z M 242.64006,264.46096 C 220.33611,258.45366 204.36555,237.8154 204.36555,215 c 0,-27.78328 23.21672,-51 51,-51 27.78328,0 51,23.21672 51,51 0,23.03952 -16.08836,43.62049 -38.70319,49.51091 -7.06272,1.8396 -18.08846,1.81759 -25.0223,-0.05 z"
       id="path1" />
  </g>
</svg>
