<?xml version="1.0" encoding="UTF-8" standalone="no"?>
<!-- Created with Inkscape (http://www.inkscape.org/) -->

<svg
   version="1.1"
   id="svg1"
   width="512"
   height="512"
   viewBox="0 0 512 512"
   sodipodi:docname="googl.svg"
   inkscape:version="1.4 (86a8ad7, 2024-10-11)"
   xmlns:inkscape="http://www.inkscape.org/namespaces/inkscape"
   xmlns:sodipodi="http://sodipodi.sourceforge.net/DTD/sodipodi-0.dtd"
   xmlns="http://www.w3.org/2000/svg"
   xmlns:svg="http://www.w3.org/2000/svg">
  <defs
     id="defs1" />
  <sodipodi:namedview
     id="namedview1"
     pagecolor="#ffffff"
     bordercolor="#000000"
     borderopacity="0.25"
     inkscape:showpageshadow="2"
     inkscape:pageopacity="0.0"
     inkscape:pagecheckerboard="0"
     inkscape:deskcolor="#d1d1d1"
     showgrid="false"
     inkscape:zoom="1.5761719"
     inkscape:cx="255.68278"
     inkscape:cy="306.75589"
     inkscape:window-width="1920"
     inkscape:window-height="1009"
     inkscape:window-x="-8"
     inkscape:window-y="-8"
     inkscape:window-maximized="1"
     inkscape:current-layer="g1" />
  <g
     inkscape:groupmode="layer"
     inkscape:label="Image"
     id="g1">
    <path
       style="fill:#59668d;stroke-width:1.22743;fill-opacity:1"
       d="m 246.78128,509.18653 c -4.3946,-1.51685 -8.30739,-4.01115 -11.26324,-7.17997 -2.74999,-2.94814 -5.28813,-7.4109 -6.46091,-11.36009 -1.43832,-4.84333 -1.93162,-12.0329 -1.93162,-28.15256 0,-16.33021 0.48566,-23.2835 1.97701,-28.3054 1.36082,-4.58241 3.5701,-8.2504 7.08852,-11.7688 3.67228,-3.67228 7.11922,-5.69518 12.24191,-7.1844 4.57474,-1.32991 8.74304,-1.77612 11.62973,-1.24496 2.47466,0.45535 6.70873,1.7968 9.40907,2.98102 2.70034,1.18423 6.6811,4.17069 8.84615,6.63656 2.16505,2.46588 4.78868,7.35317 5.83028,10.86064 1.39418,4.69472 1.89383,12.08863 1.89383,28.02534 0,16.07584 -0.49483,23.31443 -1.92241,28.12164 -1.3273,4.4695 -3.57199,8.12305 -7.25099,11.80205 -3.679,3.67899 -7.33254,5.92367 -11.80205,7.25098 -3.56043,1.05733 -7.61602,1.90439 -9.01243,1.88234 -1.39642,-0.0219 -5.5692,-1.08602 -9.27285,-2.36439 z M 136.28797,422.14091 c -1.6921,-0.55404 -4.72998,-1.87028 -6.75085,-2.92499 -2.02089,-1.05471 -5.13024,-3.4859 -6.90965,-5.40265 -1.77941,-1.91677 -4.26495,-5.41821 -5.52342,-7.78101 -2.03746,-3.82537 -2.28812,-7.32143 -2.28812,-31.9131 0,-24.59167 0.25066,-28.08773 2.28812,-31.91311 1.25847,-2.3628 3.74401,-5.86551 5.52342,-7.78383 1.77941,-1.91831 5.44467,-4.65959 8.14501,-6.09172 3.55036,-1.88297 7.11867,-2.60391 12.88799,-2.60391 5.76933,0 9.33762,0.72094 12.88798,2.60391 2.70034,1.43213 6.3656,4.17341 8.14501,6.09172 1.77942,1.91832 4.26496,5.42103 5.52342,7.78383 2.03746,3.82538 2.28813,7.32144 2.28813,31.91311 0,24.59167 -0.25067,28.08773 -2.28813,31.9131 -1.25846,2.3628 -3.744,5.86553 -5.52342,7.78383 -1.77941,1.91831 -5.37706,4.58912 -7.99477,5.93514 -2.61772,1.346 -7.5888,2.66098 -11.04684,2.92214 -3.45805,0.26118 -7.6718,0.0216 -9.36388,-0.53246 z m 223.39968,-5.43907 c -2.3628,-0.74474 -7.07643,-4.14049 -10.47472,-7.5461 -3.88583,-3.89419 -6.73266,-8.06686 -7.67142,-11.24416 -1.08688,-3.67857 -1.4927,-22.16057 -1.4927,-67.97979 0,-45.81923 0.40582,-64.30123 1.4927,-67.9798 0.94044,-3.18301 3.77861,-7.33804 7.67142,-11.23084 3.89281,-3.89281 8.04783,-6.73098 11.23083,-7.67143 2.77867,-0.82098 6.96093,-1.4927 9.29391,-1.4927 2.33299,0 6.81924,0.87824 9.96945,1.95161 3.86154,1.31577 7.4564,3.8744 11.03375,7.85328 2.91836,3.24592 5.96273,8.09329 6.76528,10.77192 1.04495,3.48778 1.45916,22.73309 1.45916,67.79796 0,45.06486 -0.41421,64.31016 -1.45916,67.79794 -0.80255,2.67864 -3.84692,7.526 -6.76528,10.77192 -3.57735,3.97888 -7.17221,6.53751 -11.03375,7.85328 -3.15021,1.07339 -7.97672,1.89522 -10.72556,1.8263 -2.74886,-0.069 -6.93112,-0.73464 -9.29391,-1.47939 z M 246.78128,371.71469 c -4.3946,-1.51685 -8.30739,-4.01114 -11.26324,-7.17997 -2.74999,-2.94813 -5.28813,-7.4109 -6.46091,-11.36009 -1.68083,-5.65993 -1.93162,-18.23944 -1.93162,-96.88848 0,-79.52813 0.23746,-91.18365 1.97701,-97.04131 1.36082,-4.58241 3.5701,-8.25041 7.08852,-11.76881 3.67228,-3.67228 7.11922,-5.69518 12.24191,-7.18439 4.57474,-1.32992 8.74304,-1.77613 11.62973,-1.24497 2.47466,0.45535 6.70873,1.79681 9.40907,2.98103 2.70034,1.18422 6.6811,4.17067 8.84615,6.63655 2.16505,2.46589 4.78868,7.35317 5.83028,10.86065 1.63195,5.49534 1.89383,18.87603 1.89383,96.76125 0,78.46608 -0.25348,91.23765 -1.92241,96.85756 -1.3273,4.46949 -3.57199,8.12305 -7.25099,11.80205 -3.679,3.679 -7.33254,5.92368 -11.80205,7.25098 -3.56043,1.05733 -7.61602,1.90439 -9.01243,1.88234 -1.39642,-0.0219 -5.5692,-1.08601 -9.27285,-2.36439 z M 23.364665,304.30791 c -1.692082,-0.55405 -4.729964,-1.87029 -6.75085,-2.92499 -2.020884,-1.05472 -5.130215,-3.48591 -6.9096408,-5.40266 -1.7794133,-1.91676 -4.2649533,-5.4182 -5.523422,-7.781 -2.0374554,-3.82537 -2.2881206,-7.32143 -2.2881206,-31.91311 0,-24.59167 0.2506652,-28.08773 2.2881206,-31.9131 1.2584687,-2.3628 3.7440087,-5.86552 5.523422,-7.78383 1.7794258,-1.91831 5.4446698,-4.65959 8.1450098,-6.09173 3.550357,-1.88296 7.118661,-2.60391 12.887985,-2.60391 5.769325,0 9.33764,0.72095 12.887985,2.60391 2.70034,1.43214 6.365597,4.17342 8.145011,6.09173 1.779413,1.91831 4.264953,5.42103 5.523421,7.78383 2.037456,3.82537 2.288121,7.32143 2.288121,31.9131 0,24.59168 -0.250665,28.08774 -2.288121,31.91311 -1.258468,2.3628 -3.744008,5.86551 -5.523421,7.78383 -1.779414,1.91831 -5.377064,4.58911 -7.994774,5.93513 -2.617709,1.34601 -7.588789,2.66098 -11.046844,2.92215 -3.458055,0.26118 -7.6718,0.0216 -9.363882,-0.53246 z m 449.263205,-1.32914 c -4.3946,-1.51685 -8.30739,-4.01115 -11.26324,-7.17997 -2.75,-2.94813 -5.28813,-7.4109 -6.46091,-11.36008 -1.43832,-4.84334 -1.93161,-12.03291 -1.93161,-28.15257 0,-16.3302 0.48565,-23.2835 1.977,-28.3054 1.36083,-4.5824 3.57011,-8.25039 7.08851,-11.7688 3.69671,-3.69671 7.11474,-5.69388 12.34877,-7.21546 6.15342,-1.78883 8.22095,-1.88376 13.80602,-0.63387 3.64745,0.81625 8.87621,3.20618 11.75708,5.37383 2.99926,2.25673 6.48295,6.48935 8.25683,10.03192 2.90011,5.79166 3.09056,7.42408 3.46899,29.73379 0.32323,19.05403 0.0155,24.92981 -1.59586,30.47272 -1.43515,4.93678 -3.4996,8.37031 -7.34454,12.21525 -3.69819,3.69819 -7.3455,5.94138 -11.82175,7.27069 -3.56044,1.05733 -7.61603,1.90438 -9.01244,1.88235 -1.39641,-0.0219 -5.5692,-1.08602 -9.27285,-2.3644 z m -336.3399,-28.12911 c -1.6921,-0.55405 -4.72998,-1.87029 -6.75085,-2.92499 -2.02089,-1.05472 -5.13024,-3.48591 -6.90965,-5.40266 -1.77941,-1.91676 -4.26495,-5.4182 -5.52342,-7.781 -2.15199,-4.04043 -2.28812,-8.27547 -2.28812,-71.19077 0,-66.19662 0.0277,-66.94603 2.64931,-71.80449 1.45711,-2.70034 4.21882,-6.3656 6.13713,-8.14501 1.91831,-1.77941 5.42103,-4.24635 7.78383,-5.48206 2.88026,-1.50635 6.92522,-2.246767 12.27427,-2.246767 5.34906,0 9.39402,0.740417 12.27427,2.246767 2.3628,1.23571 5.86552,3.70265 7.78383,5.48206 1.9183,1.77941 4.68001,5.44467 6.13713,8.14501 2.62166,4.85846 2.64931,5.60787 2.64931,71.80449 0,62.9153 -0.13612,67.15034 -2.28813,71.19077 -1.25846,2.3628 -3.744,5.86551 -5.52342,7.78383 -1.77941,1.91831 -5.37706,4.58911 -7.99477,5.93513 -2.61772,1.34601 -7.5888,2.66098 -11.04684,2.92215 -3.45805,0.26118 -7.6718,0.0216 -9.36388,-0.53246 z m 223.39968,-83.9944 c -2.3628,-0.74475 -7.07643,-4.14049 -10.47472,-7.54611 -3.88583,-3.8942 -6.73266,-8.06687 -7.67142,-11.24416 -0.94552,-3.20019 -1.4927,-13.72138 -1.4927,-28.70213 0,-14.98076 0.54718,-25.50195 1.4927,-28.70213 0.94044,-3.183 3.77861,-7.33803 7.67142,-11.23084 3.89281,-3.892809 8.04783,-6.73098 11.23083,-7.671421 2.77867,-0.820985 6.96093,-1.4927 9.29391,-1.4927 2.33299,0 6.81924,0.878224 9.96945,1.951611 3.86154,1.315769 7.4564,3.8744 11.03375,7.85327 2.91836,3.24593 5.96273,8.09329 6.76528,10.77193 0.90827,3.03154 1.45916,13.79909 1.45916,28.52028 0,14.72118 -0.55089,25.48874 -1.45916,28.52028 -0.80255,2.67863 -3.84692,7.526 -6.76528,10.77192 -3.57735,3.97888 -7.17221,6.53751 -11.03375,7.85328 -3.15021,1.07338 -7.97672,1.89521 -10.72556,1.82629 -2.74886,-0.069 -6.93112,-0.73463 -9.29391,-1.47937 z M 246.78128,96.771015 c -4.3946,-1.51686 -8.30739,-4.011148 -11.26324,-7.179972 -2.74999,-2.948133 -5.28813,-7.410899 -6.46091,-11.360096 -1.43832,-4.843342 -1.93162,-12.03291 -1.93162,-28.152564 0,-16.330205 0.48566,-23.283507 1.97701,-28.305402 1.36082,-4.582403 3.5701,-8.250385 7.08852,-11.768805 3.67228,-3.6722797 7.11922,-5.6951755 12.24191,-7.1843828 4.57474,-1.3299128 8.74304,-1.776129 11.62973,-1.2449646 2.47466,0.4553428 6.70873,1.7968044 9.40907,2.9810244 2.70034,1.1842221 6.6811,4.1706704 8.84615,6.636559 2.16505,2.465876 4.78868,7.35316 5.83028,10.860631 1.39418,4.694713 1.89383,12.088635 1.89383,28.02534 0,16.075835 -0.49483,23.314427 -1.92241,28.121633 -1.3273,4.469516 -3.57199,8.123063 -7.25099,11.802068 -3.679,3.678992 -7.33254,5.923673 -11.80205,7.250972 -3.56043,1.057338 -7.61602,1.904391 -9.01243,1.882353 -1.39642,-0.02194 -5.5692,-1.086018 -9.27285,-2.364394 z"
       id="path1" />
  </g>
</svg>
