<?xml version="1.0" encoding="UTF-8" standalone="no"?>
<!-- Created with Inkscape (http://www.inkscape.org/) -->

<svg
   version="1.1"
   id="svg1"
   width="512"
   height="512"
   viewBox="0 0 512 512"
   sodipodi:docname="podc2.svg"
   inkscape:version="1.4 (86a8ad7, 2024-10-11)"
   xmlns:inkscape="http://www.inkscape.org/namespaces/inkscape"
   xmlns:sodipodi="http://sodipodi.sourceforge.net/DTD/sodipodi-0.dtd"
   xmlns="http://www.w3.org/2000/svg"
   xmlns:svg="http://www.w3.org/2000/svg">
  <defs
     id="defs1" />
  <sodipodi:namedview
     id="namedview1"
     pagecolor="#ffffff"
     bordercolor="#000000"
     borderopacity="0.25"
     inkscape:showpageshadow="2"
     inkscape:pageopacity="0.0"
     inkscape:pagecheckerboard="0"
     inkscape:deskcolor="#d1d1d1"
     inkscape:zoom="1.5761719"
     inkscape:cx="256"
     inkscape:cy="256"
     inkscape:window-width="1920"
     inkscape:window-height="1009"
     inkscape:window-x="-8"
     inkscape:window-y="-8"
     inkscape:window-maximized="1"
     inkscape:current-layer="g1" />
  <g
     inkscape:groupmode="layer"
     inkscape:label="Image"
     id="g1">
    <path
       style="fill:#59668d;fill-opacity:1;stroke-width:0.996278"
       d="M 80.111446,444.23906 C 75.714272,441.54733 61.903116,426.60032 53.475409,415.41245 -10.028065,331.11089 -15.254423,216.9792 40.282374,127.30681 51.917359,108.5204 73.589281,82.577934 80.735106,78.882682 c 9.429306,-4.876083 20.962374,2.2376 20.962374,12.929755 0,5.741616 -0.99625,7.432409 -10.372594,17.604113 -58.640579,63.61483 -75.30939,153.72158 -43.622421,235.8101 9.229372,23.90969 26.176424,50.41021 45.196063,70.67422 7.707232,8.21148 8.798952,10.17382 8.798952,15.816 0,11.01613 -12.34632,18.1783 -21.586034,12.52219 z m 339.488024,0.19853 c -4.41995,-2.17895 -7.39528,-7.29684 -7.39528,-12.72072 0,-5.72314 1.03285,-7.50121 9.88865,-17.02351 25.27239,-27.17443 43.85492,-61.54432 53.05707,-98.1334 4.90399,-19.49892 6.37924,-32.17079 6.37924,-54.79531 0,-22.62451 -1.47525,-35.29638 -6.37924,-54.7953 -9.29315,-36.95087 -27.80961,-71.08228 -53.50812,-98.63155 -8.38054,-8.984083 -9.4376,-10.835004 -9.4376,-16.525363 0,-10.272129 10.45043,-17.217948 20.28169,-13.48011 3.00933,1.144146 14.78196,13.238552 23.65596,24.302543 28.74812,35.84278 46.5599,77.36842 53.51305,124.75818 2.43288,16.58144 2.43288,52.16177 0,68.7432 -6.95315,47.38977 -24.76493,88.91541 -53.51305,124.75819 -8.874,11.06399 -20.64663,23.1584 -23.65596,24.30254 -3.54365,1.34729 -9.30132,1.008 -12.88641,-0.75939 z M 140.88442,389.27651 c -5.06662,-1.0824 -7.18571,-2.73293 -15.03345,-11.70937 -58.30607,-66.69188 -58.299793,-164.92028 0.0147,-231.62191 8.50811,-9.73177 11.77172,-11.87024 18.11571,-11.87024 8.32131,0 14.33782,6.24096 14.33782,14.87269 0,4.58938 -2.56312,8.79392 -10.77322,17.6724 -6.34017,6.85633 -15.74231,20.76919 -20.78978,30.76381 -4.71238,9.33109 -10.80251,28.0038 -12.87443,39.47381 -2.31206,12.7994 -2.30901,37.06664 0.006,49.74759 4.73127,25.91367 17.75137,53.1115 33.65579,70.30394 3.04141,3.28771 6.71009,7.72145 8.15262,9.85274 7.42389,10.96857 -1.97615,25.25672 -14.8121,22.51454 z m 226.13432,-5e-4 c -7.02514,-1.49156 -11.43636,-7.15946 -11.43636,-14.69438 0,-4.54967 2.56396,-8.79344 10.50071,-17.38043 11.71244,-12.67202 22.56525,-31.80302 28.7071,-50.60403 4.96145,-15.18766 6.90744,-27.81803 6.90744,-44.83252 0,-17.01449 -1.94599,-29.64485 -6.90744,-44.83252 -6.14185,-18.801 -16.99466,-37.93201 -28.7071,-50.60402 -7.93675,-8.58699 -10.50071,-12.83077 -10.50071,-17.38043 0,-8.63173 6.01652,-14.87269 14.33782,-14.87269 6.344,0 9.60543,2.13714 18.13671,11.8846 25.42142,29.04535 40.9786,66.47036 43.06568,103.60065 2.2963,40.85255 -7.10989,76.60806 -28.66724,108.97199 -7.45603,11.1937 -19.51461,25.77156 -23.45171,28.35124 -3.30821,2.16763 -8.32617,3.16936 -11.9849,2.39254 z m -124.0158,-33.54994 c -7.33382,-1.21803 -19.14816,-4.79747 -25.45995,-7.7137 -53.08005,-24.52449 -71.69559,-90.49665 -39.22103,-138.99657 28.74765,-42.93387 87.04263,-54.89195 130.21229,-26.7105 21.1824,13.82802 36.1808,35.80859 41.29575,60.52007 2.56508,12.39247 2.04044,31.46162 -1.1918,43.31833 -9.39685,34.47016 -37.69276,61.256 -72.24226,68.3869 -8.3662,1.72676 -26.32338,2.36963 -33.393,1.19547 z m 33.87346,-32.00626 c 19.52735,-6.40992 35.92675,-22.96621 42.12472,-42.52773 1.84459,-5.82174 2.20104,-9.19607 2.15747,-20.42371 -0.0464,-11.96421 -0.33505,-14.19159 -2.61306,-20.16621 -3.81114,-9.99562 -8.52919,-17.34469 -15.80836,-24.62384 -7.32547,-7.32549 -14.72543,-12.05993 -24.62384,-15.75421 -9.02237,-3.36732 -26.55787,-4.24299 -36.13236,-1.80434 -23.84348,6.07298 -42.20205,24.27958 -48.26233,47.86282 -1.97004,7.66631 -1.96653,23.31922 0.007,30.96413 5.93584,22.99448 24.26028,41.50115 47.28481,47.75507 8.08711,2.19662 27.36826,1.50744 35.86602,-1.28198 z"
       id="path1" />
  </g>
</svg>
