<?xml version="1.0" encoding="UTF-8" standalone="no"?>
<!-- Created with Inkscape (http://www.inkscape.org/) -->

<svg
   version="1.1"
   id="svg1"
   width="512"
   height="512"
   viewBox="0 0 512 512"
   sodipodi:docname="spotify_4423439-23.svg"
   inkscape:version="1.4 (86a8ad7, 2024-10-11)"
   xmlns:inkscape="http://www.inkscape.org/namespaces/inkscape"
   xmlns:sodipodi="http://sodipodi.sourceforge.net/DTD/sodipodi-0.dtd"
   xmlns="http://www.w3.org/2000/svg"
   xmlns:svg="http://www.w3.org/2000/svg">
  <defs
     id="defs1" />
  <sodipodi:namedview
     id="namedview1"
     pagecolor="#ffffff"
     bordercolor="#000000"
     borderopacity="0.25"
     inkscape:showpageshadow="2"
     inkscape:pageopacity="0.0"
     inkscape:pagecheckerboard="0"
     inkscape:deskcolor="#d1d1d1"
     showgrid="false"
     inkscape:zoom="1.5761719"
     inkscape:cx="256"
     inkscape:cy="256"
     inkscape:window-width="1920"
     inkscape:window-height="1009"
     inkscape:window-x="-8"
     inkscape:window-y="-8"
     inkscape:window-maximized="1"
     inkscape:current-layer="g1">
    <inkscape:grid
       id="grid1"
       units="px"
       originx="0"
       originy="0"
       spacingx="1"
       spacingy="1"
       empcolor="#0099e5"
       empopacity="0.30196078"
       color="#0099e5"
       opacity="0.14901961"
       empspacing="5"
       enabled="true"
       visible="false" />
  </sodipodi:namedview>
  <g
     inkscape:groupmode="layer"
     inkscape:label="Image"
     id="g1">
    <path
       style="fill:#59668d;stroke-width:1.82068;fill-rule:nonzero;fill-opacity:1"
       d="M 233.15048,505.0894 C 185.65703,500.19221 142.91393,483.52242 104.72095,455.00198 92.734601,446.05121 66.090781,419.40738 57.140009,407.42107 -0.19945492,330.63526 -10.004969,231.5882 31.349665,146.90895 44.499,119.98386 57.488825,101.94081 79.751271,79.678338 101.12908,58.30053 118.93189,45.268475 143.78512,32.804106 232.98995,-11.933818 339.8804,0.32687472 416.19876,64.050837 c 11.37261,9.495883 30.31606,29.313426 38.84924,40.641913 26.11853,34.67434 42.71864,74.67493 48.81974,117.63896 2.4931,17.55631 2.4931,49.84935 0,67.40566 -6.09468,42.91893 -22.48777,82.45741 -48.79284,117.6837 -9.03124,12.09412 -35.63015,38.6561 -47.85197,47.78552 -34.21689,25.55926 -72.88746,41.82886 -114.27367,48.07757 -14.95339,2.25772 -46.24812,3.20248 -59.79878,1.80524 z m 131.4294,-132.07185 c 7.50925,-3.78669 10.69647,-12.95878 7.04377,-20.27039 -2.16326,-4.33012 -7.81303,-8.0642 -25.67966,-16.9724 -51.12574,-25.49099 -110.84611,-33.81358 -179.43829,-25.00645 -18.7204,2.4037 -43.09862,7.15081 -46.95022,9.14255 -3.58356,1.85315 -7.82241,6.76501 -8.63621,10.00745 -2.17642,8.67154 5.68227,18.93581 14.48016,18.91261 1.77288,-0.007 9.59763,-1.29079 17.3884,-2.85804 28.65461,-5.76447 48.97825,-7.87731 75.78381,-7.87845 21.33379,-9.6e-4 34.5624,1.11593 52.82331,4.45984 21.83298,3.99803 47.80164,12.86269 64.81781,22.1262 22.0984,12.03023 21.43183,11.83433 28.36712,8.33708 z m 30.5105,-68.7463 c 7.63582,-5.36665 10.70138,-12.81242 8.55576,-20.78064 -1.49454,-5.55036 -5.78571,-9.39962 -17.91509,-16.07021 -75.30518,-41.41441 -178.18735,-53.04875 -263.29913,-29.77493 -12.31344,3.36709 -15.97636,5.70026 -18.83742,11.99884 -4.805436,10.57919 0.0109,22.50753 10.48259,25.96362 4.73001,1.56107 10.46957,0.83878 25.92115,-3.26193 58.27697,-15.46617 134.09409,-10.5787 193.78756,12.4923 11.6556,4.50479 31.112,13.86629 38.46177,18.50599 6.28518,3.96766 7.9575,4.4763 13.57676,4.12944 3.79694,-0.23438 6.24853,-1.08167 9.26605,-3.20248 z m 34.09822,-76.25883 c 6.74718,-3.75392 9.60208,-8.92465 9.58844,-17.36619 -0.009,-6.60031 -2.97787,-14.19139 -6.94368,-17.76425 -4.00554,-3.60871 -21.33042,-12.73158 -36.55452,-19.24874 -41.32766,-17.6916 -88.72368,-28.25599 -143.56739,-32.00058 -20.63569,-1.40895 -65.0633,-0.5971 -84.35506,1.5415 -27.46953,3.04511 -62.52488,10.10959 -70.452207,14.19778 -8.030049,4.14115 -12.729992,11.89705 -12.729992,21.00708 0,6.30883 2.151722,11.17312 6.996881,15.81749 6.670812,6.39438 15.548048,7.76349 27.194388,4.19403 9.26649,-2.84 32.83581,-7.46869 46.89089,-9.20876 81.19292,-10.05167 175.16801,4.38033 231.46797,35.54715 11.42573,6.3251 13.25016,6.89799 20.74156,6.51292 4.98733,-0.25636 7.74412,-1.01581 11.72272,-3.22943 z"
       id="path1" />
  </g>
</svg>
